<?xml version="1.0" standalone="no"?><!DOCTYPE svg PUBLIC "-//W3C//DTD SVG 1.1//EN" "http://www.w3.org/Graphics/SVG/1.1/DTD/svg11.dtd"><svg t="1618555396256" class="icon" viewBox="0 0 1024 1024" version="1.1" xmlns="http://www.w3.org/2000/svg" p-id="2217" xmlns:xlink="http://www.w3.org/1999/xlink" width="200" height="200"><defs><style type="text/css"></style></defs><path d="M533.979819 419.259733a630.442667 630.442667 0 0 1 68.334933-3.242666c51.882667 0 93.7984 9.147733 119.808 28.398933 23.313067 17.954133 38.843733 47.0016 34.542933 89.122133-3.9936 39.185067-24.029867 66.628267-53.316266 83.626667-26.760533 15.9744-60.484267 22.8352-111.2064 22.8352-29.9008 0-58.436267-1.6384-80.110934-4.881067l21.947734-215.8592z m42.871466 172.9536c4.983467 0.989867 11.537067 1.9456 24.507734 1.9456 51.882667 0 88.4736-25.873067 92.16-62.225066 5.358933-52.565333-27.101867-70.929067-81.783467-70.621867-7.0656 0-16.930133 0-22.1184 0.955733l-12.8 129.9456z m223.505067-164.727466c210.944-39.867733 229.137067 31.778133 222.6176 95.232l-12.288 117.282133h-66.935467l11.195734-106.973867c2.423467-23.552 17.5104-69.666133-55.330134-67.925333-25.1904 0.6144-37.717333 4.061867-37.717333 4.061867s-2.184533 28.4672-4.8128 49.493333l-12.731733 121.344h-65.6384l13.0048-119.569067" fill="#231916" p-id="2218"></path><path d="M226.677419 632.695467c-12.3904 4.334933-38.058667 7.304533-73.9328 7.304533-103.082667 0-158.754133-49.083733-152.200534-113.902933 7.918933-77.277867 90.350933-120.763733 180.6336-120.763734 34.986667 0 55.534933 2.8672 74.8544 7.645867l-6.212266 52.053333c-12.8-4.369067-42.871467-8.3968-67.242667-8.3968-53.111467 0-98.235733 16.042667-103.424 66.7648-4.608 45.3632 27.067733 67.037867 86.8352 67.037867 20.821333 0 51.473067-3.037867 65.6384-7.3728l-4.983467 49.595733z" fill="#C92027" p-id="2219"></path><path d="M272.757419 580.027733c19.285333 6.7584 59.4944 13.482667 91.989333 13.482667 35.0208 0 54.545067-9.3184 56.081067-23.790933 1.4336-13.2096-12.9024-14.984533-52.462934-23.995734-54.6816-12.9024-89.565867-32.836267-86.152533-64.7168 3.9936-37.000533 55.5008-65.024 134.5536-65.024 38.570667 0 75.912533 2.628267 95.266133 8.738134l-6.656 46.660266c-12.561067-4.1984-60.654933-10.0352-93.184-10.0352-33.006933 0-50.107733 9.966933-51.268266 20.923734-1.501867 13.824 15.6672 14.472533 58.504533 25.429333 58.026667 14.165333 83.421867 34.133333 80.110933 64.989867-3.8912 36.420267-50.244267 67.310933-142.779733 67.310933-38.570667 0-71.748267-6.7584-90.043733-13.5168l6.0416-46.455467z" fill="#231916" p-id="2220"></path></svg>